# O.M.A. Blender-authored neutral mesh. Editable shapes in models/oma-face.blend
v 0.0 0.99 -0.06
v 0.0 0.86 0.16
v 0.0 0.45 0.3
v 0.0 0.098 0.34
v 0.0 -0.22 0.58
v 0.0 -0.348 0.46
v 0.0 -0.4 0.31
v 0.0 -0.504 0.32
v 0.0 -0.54 0.34
v 0.0 -0.556 0.34
v 0.0 -0.604 0.33
v 0.0 -0.682 0.21
v 0.0 -0.91 0.15
v 0.0 -0.996 -0.04
v -0.306 0.92 -0.05
v 0.306 0.92 -0.05
v -0.366 0.774 0.19
v 0.366 0.774 0.19
v -0.566 0.71 -0.17
v 0.566 0.71 -0.17
v -0.688 0.46 -0.26
v 0.688 0.46 -0.26
v -0.52 0.494 0.09
v 0.52 0.494 0.09
v -0.368 0.448 0.25
v 0.368 0.448 0.25
v -0.514 0.2 0.23
v 0.514 0.2 0.23
v -0.15 0.23 0.35
v 0.15 0.23 0.35
v -0.2 0.15 0.35
v 0.2 0.15 0.35
v -0.532 0.052 0.2
v 0.532 0.052 0.2
v -0.372 0.088 0.28
v 0.372 0.088 0.28
v -0.26 0.08 0.31
v 0.26 0.08 0.31
v -0.102 0.0 0.32
v 0.102 0.0 0.32
v -0.362 -0.018 0.27
v 0.362 -0.018 0.27
v -0.238 -0.018 0.3
v 0.238 -0.018 0.3
v -0.63 -0.152 -0.06
v 0.63 -0.152 -0.06
v -0.47 -0.232 0.3
v 0.47 -0.232 0.3
v -0.12 -0.292 0.35
v 0.12 -0.292 0.35
v -0.046 -0.242 0.5
v 0.046 -0.242 0.5
v -0.048 -0.328 0.38
v 0.048 -0.328 0.38
v -0.068 -0.372 0.28
v 0.068 -0.372 0.28
v -0.296 -0.528 0.29
v 0.296 -0.528 0.29
v -0.05 -0.484 0.324
v 0.05 -0.484 0.324
v -0.12 -0.53 0.346
v 0.12 -0.53 0.346
v -0.12 -0.564 0.346
v 0.12 -0.564 0.346
v -0.19 -0.606 0.316
v 0.19 -0.606 0.316
v -0.546 -0.518 0.0
v 0.546 -0.518 0.0
v -0.472 -0.678 -0.04
v 0.472 -0.678 -0.04
v -0.236 -0.872 0.12
v 0.236 -0.872 0.12
v -0.752 0.148 -0.24
v 0.752 0.148 -0.24
v -0.698 0.11 -0.14
v 0.698 0.11 -0.14
v -0.774 -0.016 -0.28
v 0.774 -0.016 -0.28
v -0.704 -0.212 -0.26
v 0.704 -0.212 -0.26
v -0.67 -0.304 -0.23
v 0.67 -0.304 -0.23
v -0.634 -0.048 -0.15
v 0.634 -0.048 -0.15
v -0.65 0.2 -0.16
v 0.65 0.2 -0.16
v 0.0 0.9306 -0.95
v 0.28152 0.8648 -0.95
v 0.52072 0.6673999999999999 -0.95
v 0.63296 0.4324 -0.95
v 0.5980000000000001 0.188 -0.95
v 0.5796 -0.14287999999999998 -0.95
v 0.5023200000000001 -0.48691999999999996 -0.95
v 0.43424 -0.63732 -0.95
v 0.21712 -0.81968 -0.95
v 0.0 -0.93624 -0.95
v -0.21712 -0.81968 -0.95
v -0.43424 -0.63732 -0.95
v -0.5023200000000001 -0.48691999999999996 -0.95
v -0.5796 -0.14287999999999998 -0.95
v -0.5980000000000001 0.188 -0.95
v -0.63296 0.4324 -0.95
v -0.52072 0.6673999999999999 -0.95
v -0.28152 0.8648 -0.95
v 0 0.05 -1.22
f 1 15 2
f 15 17 2
f 15 19 17
f 19 21 23
f 19 23 17
f 17 23 25
f 17 25 3
f 17 3 2
f 25 23 27
f 25 27 29
f 25 29 3
f 3 29 4
f 21 85 23
f 23 85 27
f 85 33 27
f 27 31 29
f 29 31 4
f 27 33 35
f 27 35 37
f 27 37 31
f 31 37 39
f 31 39 4
f 47 41 33
f 33 45 47
f 45 33 85
f 35 41 43
f 35 43 37
f 33 41 35
f 37 43 39
f 41 47 49
f 41 49 43
f 43 49 39
f 39 49 51
f 39 51 4
f 4 51 5
f 51 53 6
f 51 6 5
f 53 55 7
f 53 7 6
f 51 49 55
f 51 55 53
f 49 57 59
f 49 59 55
f 55 59 8
f 55 8 7
f 59 61 9
f 59 9 8
f 57 61 59
f 57 65 63
f 63 65 11
f 63 11 10
f 65 12 11
f 57 67 69
f 57 69 65
f 45 67 47
f 47 67 57
f 47 57 49
f 65 69 71
f 65 71 12
f 12 71 13
f 71 14 13
f 14 69 71
f 73 77 75
f 77 79 75
f 75 79 83
f 79 81 83
f 75 83 85
f 83 81 45
f 85 45 83
f 2 16 1
f 2 18 16
f 18 20 16
f 24 22 20
f 18 24 20
f 26 24 18
f 3 26 18
f 2 3 18
f 28 24 26
f 30 28 26
f 3 30 26
f 4 30 3
f 24 86 22
f 28 86 24
f 28 34 86
f 30 32 28
f 4 32 30
f 36 34 28
f 38 36 28
f 32 38 28
f 40 38 32
f 4 40 32
f 34 42 48
f 48 46 34
f 86 34 46
f 44 42 36
f 38 44 36
f 36 42 34
f 40 44 38
f 50 48 42
f 44 50 42
f 40 50 44
f 52 50 40
f 4 52 40
f 5 52 4
f 6 54 52
f 5 6 52
f 7 56 54
f 6 7 54
f 56 50 52
f 54 56 52
f 60 58 50
f 56 60 50
f 8 60 56
f 7 8 56
f 9 62 60
f 8 9 60
f 60 62 58
f 64 66 58
f 11 66 64
f 10 11 64
f 11 12 66
f 70 68 58
f 66 70 58
f 48 68 46
f 58 68 48
f 50 58 48
f 72 70 66
f 12 72 66
f 13 72 12
f 13 14 72
f 72 70 14
f 76 78 74
f 76 80 78
f 84 80 76
f 84 82 80
f 86 84 76
f 46 82 84
f 84 46 86
f 1 87 88
f 1 88 16
f 87 105 88
f 16 88 89
f 16 89 20
f 88 105 89
f 20 89 90
f 20 90 22
f 89 105 90
f 22 90 91
f 22 91 86
f 90 105 91
f 86 91 92
f 86 92 46
f 91 105 92
f 46 92 93
f 46 93 68
f 92 105 93
f 68 93 94
f 68 94 70
f 93 105 94
f 70 94 95
f 70 95 72
f 94 105 95
f 72 95 96
f 72 96 14
f 95 105 96
f 14 96 97
f 14 97 71
f 96 105 97
f 71 97 98
f 71 98 69
f 97 105 98
f 69 98 99
f 69 99 67
f 98 105 99
f 67 99 100
f 67 100 45
f 99 105 100
f 45 100 101
f 45 101 85
f 100 105 101
f 85 101 102
f 85 102 21
f 101 105 102
f 21 102 103
f 21 103 19
f 102 105 103
f 19 103 104
f 19 104 15
f 103 105 104
f 15 104 87
f 15 87 1
f 104 105 87
